<svg id="Layer_1" data-name="Layer 1" xmlns="http://www.w3.org/2000/svg" viewBox="0 0 74.76 29.91"><g id="Layer_1-2" data-name="Layer_1"><path d="M2,29.38H.82V28.11H2c.6,0,.92.2.92.63S2.61,29.38,2,29.38Zm37.25-.57L37.78,26.3H37.5v3.38h.34V27l1.33,2.25h.17L40.67,27v2.71H41V26.3h-.3l-1.44,2.51Zm-4.94-.43-.25.43L32.61,26.3h-.3v3.38h.34V27L34,29.25h.16l.18-.3,1.15-2v2.71h.34V26.3h-.28l-1.21,2.08ZM74,29,71.77,26.3h-.29v3.38h.35V26.94L74,29.68h.29V26.3h-.35V29Zm-5.63.34A1.4,1.4,0,1,1,69.74,28,1.37,1.37,0,0,1,68.32,29.38Zm0-3.11A1.72,1.72,0,1,0,70.09,28,1.7,1.7,0,0,0,68.32,26.27Zm-3.51,3.4h.36V26.3h-.36Zm-3.88-3.06h1.19v3.07h.36V26.61h1.18V26.3H60.93v.31Zm-3,1.87.81-1.81.81,1.81Zm.63-2.18-1.54,3.37h.37l.41-.9h1.88l.4.9h.38L59,26.3Zm-3.48.29a1.36,1.36,0,0,1,1,.4l.22-.23a1.64,1.64,0,0,0-1.23-.49,1.72,1.72,0,1,0,0,3.43,1.65,1.65,0,0,0,1.24-.49L56.11,29a1.41,1.41,0,1,1-1-2.39Zm-3.52,3.08H52V26.3h-.36Zm-2-.63L47.38,26.3h-.29v3.38h.35V26.94l2.17,2.74h.3V26.3h-.35V29Zm-4.48-.82c0,.8-.37,1.16-1,1.16s-1-.36-1-1.16V26.3h-.36v1.93a1.39,1.39,0,1,0,2.77,0V26.3h-.35v1.92ZM29.16,29.38A1.4,1.4,0,1,1,30.57,28,1.36,1.36,0,0,1,29.16,29.38Zm0-3.11A1.72,1.72,0,1,0,30.93,28,1.7,1.7,0,0,0,29.16,26.27Zm-4,.32a1.36,1.36,0,0,1,1,.4l.22-.23a1.66,1.66,0,0,0-1.23-.49,1.72,1.72,0,1,0,0,3.43,1.66,1.66,0,0,0,1.24-.49L26.18,29a1.34,1.34,0,0,1-1,.41,1.4,1.4,0,1,1,0-2.8Zm-6.54,2.77h-1V26.61h1a1.38,1.38,0,1,1,0,2.75Zm0-3.06H17.3v3.37h1.37a1.69,1.69,0,1,0,0-3.37ZM15.26,29,13.09,26.3h-.3v3.38h.36V26.94l2.17,2.74h.29V26.3h-.35V29Zm-6.14-.56.81-1.81.81,1.81Zm.64-2.18L8.22,29.67h.37l.4-.9h1.88l.41.9h.37L10.11,26.3Zm-3.82,2H5V26.61h.9c.68,0,1,.31,1,.85s-.36.84-1,.84Zm1.39-.84c0-.73-.52-1.16-1.38-1.16H4.69v3.37H5V28.6H6.22L7,29.67h.39l-.82-1.16a1,1,0,0,0,.77-1.05ZM.82,26.6H1.9c.54,0,.85.2.85.61s-.31.61-.85.61H.82V26.6Zm1.77,1.34a.8.8,0,0,0,.52-.77c0-.55-.43-.87-1.18-.87H.47v3.38H2c.84,0,1.27-.33,1.27-.9a.8.8,0,0,0-.7-.84Z" style="fill:#fff;stroke:#fff;stroke-miterlimit:10;stroke-width:0.28367999190807325px"/><path d="M18.65,16.7c0,4-3,7.41-9.33,7.41A14.85,14.85,0,0,1,.47,21.38L2.35,18a11,11,0,0,0,6.9,2.32c3.13,0,5-1.38,5-3.57s-1.55-3.5-5.12-3.5H7v-3l5.36-6.36H1.61V.2H17.67V3.13L12,9.93c4.44.57,6.69,3.23,6.69,6.77Zm51.5,7.07,0-15.62L62.38,21.08h-2L52.68,8.35V23.77H48.51V.2h3.6l9.36,15.63L70.66.2h3.6l0,23.57Zm-33-8.89L32.68,4.58l-4.41,10.3Zm1.45,3.43H26.79l-2.32,5.46H20L30.57.2h4.31L45.51,23.77H40.93l-2.35-5.46Z" style="fill:#fff"/></g></svg>