<?xml version="1.0" encoding="utf-8"?>
<!-- Generator: Adobe Illustrator 26.0.1, SVG Export Plug-In . SVG Version: 6.00 Build 0)  -->
<svg version="1.1" id="Layer_1" xmlns:xodm="http://www.corel.com/coreldraw/odm/2003"
	 xmlns="http://www.w3.org/2000/svg" xmlns:xlink="http://www.w3.org/1999/xlink" x="0px" y="0px" viewBox="0 0 300 300"
	 style="enable-background:new 0 0 300 300;" xml:space="preserve">
<style type="text/css">
	.st0{fill:#FFFFFF;stroke:#FFFFFF;stroke-width:0.2837;stroke-miterlimit:10;}
	.st1{fill:#FFFFFF;}
</style>
<g>
	<path class="st1" d="M106.2,95.7H34.6V3h71.6V95.7z M38.8,91.5h63.3V7.2H38.8V91.5z"/>
	<path class="st1" d="M185.8,95.7h-71.6V3h71.6V95.7z M118.4,91.5h63.3V7.2h-63.3V91.5z"/>
	<path class="st1" d="M265.4,95.7h-71.6V3h71.6V95.7z M197.9,91.5h63.3V7.2h-63.3V91.5z"/>
	<path class="st1" d="M106.2,196.3H34.6v-92.6h71.6V196.3z M38.8,192.2h63.3v-84.3H38.8V192.2z"/>
	<path class="st1" d="M185.8,196.3h-71.6v-92.6h71.6V196.3z M118.4,192.2h63.3v-84.3h-63.3V192.2z"/>
	<rect x="197.9" y="107.8" class="st1" width="63.3" height="84.3"/>
	<path class="st1" d="M106.2,297H34.6v-92.6h71.6V297z M38.8,292.8h63.3v-84.3H38.8V292.8z"/>
	<path class="st1" d="M185.8,297h-71.6v-92.6h71.6V297z M118.4,292.8h63.3v-84.3h-63.3V292.8z"/>
	<path class="st1" d="M265.4,297h-71.6v-92.6h71.6V297z M197.9,292.8h63.3v-84.3h-63.3V292.8z"/>
</g>
</svg>
