<svg id="Layer_1" data-name="Layer 1" xmlns="http://www.w3.org/2000/svg" viewBox="0 0 300 300"><path d="M106.2,95.67H34.63V3H106.2ZM38.78,91.53h63.27V7.18H38.78Z"/><path d="M185.78,95.67H114.21V3h71.57Zm-67.42-4.14h63.28V7.18H118.36Z"/><path d="M265.37,95.67H193.8V3h71.57Zm-67.43-4.14h63.28V7.18H197.94Z"/><path d="M106.2,196.32H34.63V103.68H106.2Zm-67.42-4.14h63.27V107.83H38.78Z"/><path d="M185.78,196.32H114.21V103.68h71.57Zm-67.42-4.14h63.28V107.83H118.36Z"/><rect x="197.94" y="107.83" width="63.28" height="84.35"/><path d="M106.2,297H34.63V204.33H106.2Zm-67.42-4.14h63.27V208.48H38.78Z"/><path d="M185.78,297H114.21V204.33h71.57Zm-67.42-4.14h63.28V208.48H118.36Z"/><path d="M265.37,297H193.8V204.33h71.57Zm-67.43-4.14h63.28V208.48H197.94Z"/></svg>